<svg width="1137" height="567" viewBox="0 0 1137 567" fill="none" xmlns="http://www.w3.org/2000/svg">
<path d="M950.801 224.133V401.057H1084.75V353.596H1136.69V401.057C1136.69 408.264 1135.28 415.031 1132.47 421.359C1129.83 427.688 1126.14 433.225 1121.4 437.971C1116.83 442.541 1111.38 446.232 1105.05 449.045C1098.72 451.682 1091.95 453 1084.75 453H950.801C943.77 453 937.09 451.682 930.762 449.045C924.434 446.232 918.896 442.541 914.15 437.971C909.58 433.225 905.889 427.688 903.076 421.359C900.439 415.031 899.121 408.264 899.121 401.057V224.133C899.121 216.926 900.439 210.158 903.076 203.83C905.889 197.502 909.58 192.053 914.15 187.482C918.896 182.736 924.434 179.045 930.762 176.408C937.09 173.596 943.77 172.189 950.801 172.189H1084.75C1091.95 172.189 1098.72 173.596 1105.05 176.408C1111.38 179.045 1116.83 182.736 1121.4 187.482C1126.14 192.053 1129.83 197.502 1132.47 203.83C1135.28 210.158 1136.69 216.926 1136.69 224.133V271.594H1084.75V224.133H950.801Z" fill="white"/>
<path d="M809.736 172.189V453H757.793V172.189H809.736Z" fill="white"/>
<path d="M668.672 401.057C668.672 408.264 667.266 415.031 664.453 421.359C661.816 427.688 658.125 433.225 653.379 437.971C648.809 442.541 643.359 446.232 637.031 449.045C630.703 451.682 623.936 453 616.729 453H471.973V566.379H420.293V172.189H471.973V219.65C472.5 212.971 474.258 206.818 477.246 201.193C480.234 195.393 484.014 190.383 488.584 186.164C493.154 181.77 498.428 178.342 504.404 175.881C510.557 173.42 517.061 172.189 523.916 172.189H616.729C623.936 172.189 630.703 173.596 637.031 176.408C643.359 179.045 648.809 182.736 653.379 187.482C658.125 192.053 661.816 197.502 664.453 203.83C667.266 210.158 668.672 216.926 668.672 224.133V401.057ZM616.729 401.057V224.133H471.973V401.057H616.729Z" fill="white"/>
<path d="M333.809 64.084V453H282.129V64.084H333.809Z" fill="white"/>
<path d="M192.744 172.189V453H140.801V172.189H192.744ZM138.164 64.084H195.381V118.137H138.164V64.084Z" fill="white"/>
<path d="M51.6797 64.084V453H0V64.084H51.6797Z" fill="white"/>
<rect x="835.365" y="0.0273438" width="12.7184" height="12.7184" fill="#F4CB46"/>
<rect x="820.103" y="28.0078" width="27.9805" height="27.9805" fill="#F4CB46"/>
<rect x="791.767" y="0.0273438" width="27.9805" height="27.9805" fill="#F4CB46"/>
<path d="M718.758 0H756.788L799.054 41.4129L848.084 90.443V128.474H808.348L756.788 78.6186L718.758 41.4129V0Z" fill="#3BB1B0"/>
<path d="M718.785 39.46L764.24 83.4028L811.346 128.501H718.785V39.46Z" fill="#0F2A3D"/>
</svg>
